HIERARCHY
ROOT joint_0
{
	OFFSET 0.000000 0.000000 0.000000
	CHANNELS 6 Xposition Yposition Zposition Zrotation Yrotation Xrotation 
	JOINT joint_1
	{
		OFFSET 0.000000 0.000000 0.000000
		CHANNELS 3 Zrotation Yrotation Xrotation
		JOINT joint_2
		{
			OFFSET 3.811170 -8.520760 0.839290
			CHANNELS 3 Zrotation Yrotation Xrotation
			JOINT joint_3
			{
				OFFSET 2.562200 -7.039590 0.000000
				CHANNELS 3 Zrotation Yrotation Xrotation
				JOINT joint_4
				{
					OFFSET 0.157640 -0.433110 2.322550
					CHANNELS 3 Zrotation Yrotation Xrotation
					End Site
					{
						OFFSET 0.000000 0.000000 0.000000
					}
				}
			}
		}
	}
	JOINT joint_5
	{
		OFFSET 0.000000 0.000000 0.000000
		CHANNELS 3 Zrotation Yrotation Xrotation
		JOINT joint_6
		{
			OFFSET -3.848050 -8.780180 0.839290
			CHANNELS 3 Zrotation Yrotation Xrotation
			JOINT joint_7
			{
				OFFSET -2.568260 -7.056230 0.000000
				CHANNELS 3 Zrotation Yrotation Xrotation
				JOINT joint_8
				{
					OFFSET -0.164730 -0.452590 2.363150
					CHANNELS 3 Zrotation Yrotation Xrotation
					End Site
					{
						OFFSET 0.000000 0.000000 0.000000
					}
				}
			}
		}
	}
	JOINT joint_9
	{
		OFFSET 0.028270 2.035590 -0.193380
		CHANNELS 3 Zrotation Yrotation Xrotation
		JOINT joint_10
		{
			OFFSET 0.056720 2.048850 -0.042750
			CHANNELS 3 Zrotation Yrotation Xrotation
			JOINT joint_11
			{
				OFFSET -0.054170 1.746240 0.172020
				CHANNELS 3 Zrotation Yrotation Xrotation
				JOINT joint_12
				{
					OFFSET 0.104070 1.761360 -0.123970
					CHANNELS 3 Zrotation Yrotation Xrotation
					End Site
					{
						OFFSET 0.000000 0.000000 0.000000
					}
				}
			}
			JOINT joint_13
			{
				OFFSET 3.362410 1.200890 -0.311210
				CHANNELS 3 Zrotation Yrotation Xrotation
				JOINT joint_14
				{
					OFFSET 4.983000 -0.000000 -0.000000
					CHANNELS 3 Zrotation Yrotation Xrotation
					JOINT joint_15
					{
						OFFSET 3.483560 -0.000000 -0.000000
						CHANNELS 3 Zrotation Yrotation Xrotation
						JOINT joint_16
						{
							OFFSET 0.715260 -0.000000 -0.000000
							CHANNELS 3 Zrotation Yrotation Xrotation
							End Site
							{
								OFFSET 0.000000 0.000000 0.000000
							}
						}
					}
				}
			}
			JOINT joint_17
			{
				OFFSET -3.136600 1.374050 -0.404650
				CHANNELS 3 Zrotation Yrotation Xrotation
				JOINT joint_18
				{
					OFFSET -5.241900 -0.000000 -0.000000
					CHANNELS 3 Zrotation Yrotation Xrotation
					JOINT joint_19
					{
						OFFSET -3.444170 -0.000000 -0.000000
						CHANNELS 3 Zrotation Yrotation Xrotation
						JOINT joint_20
						{
							OFFSET -0.622530 -0.000000 -0.000000
							CHANNELS 3 Zrotation Yrotation Xrotation
							End Site
							{
								OFFSET 0.000000 0.000000 0.000000
							}
						}
					}
				}
			}
		}
	}
}
MOTION
Frames: 7
Frame Time: 0.031667
4.847296 15.567984 -2.364512 -5.013435 -25.555210 3.808602 -25.977196 34.436714 -39.827686 12.947816 2.629109 15.487344 -17.786650 21.925898 -1.552740 7.664033 5.704394 4.926309 -23.099653 -18.172302 23.002415 8.640035 -9.724369 30.778984 -13.698758 -7.384903 -1.941001 -16.973240 -1.902482 3.419089 -16.953264 9.305565 0.491301 -11.612530 -8.200100 -20.160423 17.096949 1.393815 6.531565 -21.773390 -16.295448 -11.510083 -26.525972 -47.839130 2.493343 57.806412 -75.315735 7.832134 -6.392578 -10.882931 -12.876723 2.653611 -4.114614 -7.228922 101.766930 6.438665 46.654335 -101.226646 54.019997 22.067200 6.094144 -21.688244 -21.460625 10.807429 11.531351 16.519426 
4.817107 15.564921 -2.375835 -4.960369 -25.233309 3.832239 -16.682604 5.812742 -22.151831 -29.718609 10.619173 30.422174 -14.274822 3.892689 -5.175995 7.162465 22.221195 3.844211 -5.095569 6.609531 26.841900 47.823532 -5.203605 9.183482 -16.976000 -6.782805 -22.695354 7.889784 -2.806913 8.691914 -17.902729 6.774313 18.674217 17.860456 -21.350273 -2.011882 -8.909902 -14.003417 18.741745 -15.866816 17.821150 10.280417 -27.080105 -44.983471 12.227124 86.310806 -83.918777 21.247915 -5.141843 -11.732671 20.158262 20.537918 11.025269 4.028080 114.284958 7.961069 46.426880 -81.101837 75.921661 5.389515 11.070615 10.645532 -14.398460 12.202444 21.792072 -10.842460 
4.786918 15.561857 -2.387158 -4.907456 -24.911741 3.856510 -8.577214 5.160994 -13.682081 -10.660102 15.981935 26.866268 -0.347744 3.346977 7.705124 -0.988815 -19.426857 -7.762419 -21.175591 7.633433 -12.623253 26.218578 2.063893 16.942591 20.753384 -22.221983 -5.656996 18.746147 -20.229099 12.915424 9.806986 -17.263983 -23.948040 -10.000891 -21.349340 -7.181527 -10.851076 15.414132 19.313892 2.097807 22.107639 -14.907415 -24.254768 -13.296581 -0.580406 92.163246 -82.180664 -6.834242 -9.090980 -8.994981 -15.967918 10.415833 21.790312 13.087456 108.699699 7.032576 41.382626 -95.007256 54.826275 -5.750727 -18.387203 18.337934 -12.650318 -5.649669 -21.903091 -11.176276 
4.756367 15.558990 -2.397638 -4.866138 -24.549143 3.883723 -3.774015 16.137833 -38.287533 -2.543218 6.404356 8.392552 -0.375925 -3.300035 -10.280175 -9.490179 1.660875 -6.767179 -7.624184 -34.581600 27.179319 24.672287 -21.729145 40.325775 -20.674936 9.378958 -8.952555 -12.760534 -13.028906 -7.812444 18.803104 11.936642 11.562572 14.517343 -10.716748 7.504389 8.376607 -1.121083 15.892742 -9.797689 -20.756685 4.431301 -55.215755 -20.452526 -3.118099 68.592155 -74.743927 3.939332 12.288246 -17.370077 14.207391 12.170486 -4.424349 -19.269579 97.976250 14.082049 29.461842 -93.572472 86.037445 -9.229720 -4.012683 14.981213 -20.398184 -3.788832 -0.013225 -21.402969 
4.725811 15.556126 -2.408110 -4.825040 -24.186731 3.911492 -11.063068 31.081707 -10.939817 1.949211 27.390858 38.428005 0.997738 0.411813 2.762845 -9.064531 -20.657944 -17.794844 -4.139521 -22.266922 12.203563 16.601793 -19.678295 23.743315 -8.687112 1.555259 1.986336 -14.222966 1.828538 7.571757 17.019524 10.560630 -8.617116 10.987342 -9.972949 -25.939896 15.794375 8.189422 -21.961170 10.398292 10.806445 -1.062734 -20.333017 -13.012101 25.058094 74.121750 -47.872021 4.754805 -13.260055 20.186617 -7.266997 1.281953 18.391497 6.541380 99.447052 48.477009 44.574795 -77.179619 64.596733 20.482149 -3.956905 -8.167758 5.983179 6.042866 18.994652 2.650222 
4.695186 15.553324 -2.417671 -4.793570 -23.777342 3.938570 -29.174797 10.544422 -35.221375 -0.267714 19.526808 10.487831 6.995333 -3.224940 -14.018146 -11.939965 14.168154 -16.656078 -15.296285 -8.495315 7.668280 44.260269 3.679797 6.754419 0.656552 6.278788 -31.517763 -13.603641 -13.290560 19.337994 -16.942625 23.505650 -22.956697 -14.459671 9.270204 -23.160669 3.399034 13.878366 -18.277626 2.164164 12.466981 12.335996 -58.947472 -22.827610 3.674487 62.264683 -77.921341 -18.906635 -6.455595 16.014153 -11.068561 16.580517 -7.726949 20.174255 107.637184 20.223251 51.909859 -88.767685 66.340584 -20.379608 19.876616 18.566999 -15.897394 3.453466 -22.247459 9.195841 
4.664560 15.550523 -2.427211 -4.762252 -23.367880 3.965985 -13.129610 36.202423 -48.189919 7.715801 6.257771 9.615974 -10.398566 -7.235941 -8.918624 9.056678 15.139760 -17.363848 -17.760521 -25.457529 -8.937262 26.913576 -27.876814 26.179705 -5.066515 13.799974 -4.979113 -18.829704 9.662949 15.725214 -10.908012 -8.598040 1.517809 -12.458362 13.327260 8.880116 -19.504307 7.802090 -8.405430 -15.546255 0.615558 -15.314019 -34.938847 -16.504623 26.733025 68.428139 -63.977795 10.634840 21.062979 -4.511158 7.608494 -12.431315 5.908405 10.085776 85.567917 47.585747 34.759033 -113.551743 46.950871 18.327200 -20.678511 19.768606 -17.217501 10.983178 0.356552 -15.841494 
